# xmcd CD database file
#
# Track frame offsets:
#	150
#	28875
#	57862
#	89000
#	126350
#	159450
#	193350
#	222000
#	245450
#	273787
#	298750
#
# Disc length: 4419 seconds
#
# Revision: 0
# Processed by: cddbd v1.5.2PL0 Copyright (c) Steve Scherf et al.
# Submitted via: CDex 1.51
#
DISCID=a911410b
DTITLE=The Christian Jacob Trio - Live in Japan
DYEAR=2008
DGENRE=Jazz
TTITLE0=Too Close for Comfort
TTITLE1=It Never Entered My Mind
TTITLE2=Little Eyes
TTITLE3=Hana (Spring)
TTITLE4=Natsuno Omoide (Summer)
TTITLE5=Akatonbo (Autumn)
TTITLE6=Yukino Furu Machio (Winter)
TTITLE7=State of Mind
TTITLE8=All or Nothing At All
TTITLE9=At Last
TTITLE10=Muddy Skies
EXTD=YEAR: 2008
EXTT0=
EXTT1=
EXTT2=
EXTT3=
EXTT4=
EXTT5=
EXTT6=
EXTT7=
EXTT8=
EXTT9=
EXTT10=
PLAYORDER=
